<svg width="116" height="26" viewBox="0 0 116 26" fill="none" xmlns="http://www.w3.org/2000/svg">
    <mask id="path-1-outside-1_1_4" maskUnits="userSpaceOnUse" x="-1" y="-1" width="118" height="28"
        fill="black">
        <rect fill="white" x="-1" y="-1" width="118" height="28" />
        <path
            d="M14.02 20.36C13.6733 20.9467 13.2133 21.0733 12.64 20.74L0.94 14.16C0.473334 13.9067 0.24 13.4933 0.24 12.92C0.24 12.4267 0.473334 12.0467 0.94 11.78L12.64 5.26C13.2133 4.94 13.6733 5.06667 14.02 5.64C14.34 6.21333 14.2067 6.67333 13.62 7.02L2.36 13.26V12.64L13.64 19C14.2133 19.3467 14.34 19.8 14.02 20.36ZM22.8219 20.36C22.4885 19.8 22.6152 19.3467 23.2019 19L34.4819 12.64V13.26L23.2019 7.02C22.6285 6.67333 22.5019 6.21333 22.8219 5.64C23.1552 5.06667 23.6085 4.94 24.1819 5.26L35.8819 11.78C36.3485 12.0467 36.5819 12.4267 36.5819 12.92C36.5819 13.4933 36.3485 13.9067 35.8819 14.16L24.1819 20.74C23.6085 21.0733 23.1552 20.9467 22.8219 20.36ZM45.6438 26C44.9371 26 44.5838 25.6467 44.5838 24.94V1.28C44.5838 0.573332 44.9371 0.219999 45.6438 0.219999H55.2838C58.6038 0.219999 61.0171 0.979999 62.5238 2.5C64.0438 4.02 64.8038 6.44 64.8038 9.76V16.46C64.8038 19.78 64.0438 22.2 62.5238 23.72C61.0171 25.24 58.6038 26 55.2838 26H45.6438ZM46.6838 23.9H55.2838C57.0971 23.9 58.5438 23.66 59.6238 23.18C60.7171 22.7 61.5038 21.92 61.9838 20.84C62.4638 19.7467 62.7038 18.2867 62.7038 16.46V9.76C62.7038 7.94667 62.4638 6.5 61.9838 5.42C61.5038 4.32667 60.7171 3.54 59.6238 3.06C58.5438 2.56667 57.0971 2.32 55.2838 2.32H46.6838V23.9ZM79.5322 26C76.6389 26 74.5255 25.3333 73.1922 24C71.8589 22.6667 71.1922 20.5533 71.1922 17.66V8.56C71.1922 5.64 71.8522 3.52 73.1722 2.2C74.5055 0.879999 76.6122 0.219999 79.4922 0.219999H84.3322C86.7855 0.219999 88.6122 0.733333 89.8122 1.76C91.0122 2.77333 91.6722 4.40667 91.7922 6.66C91.8322 7.02 91.7589 7.29333 91.5722 7.48C91.3989 7.66667 91.1389 7.76 90.7922 7.76C90.1255 7.76 89.7589 7.40667 89.6922 6.7C89.5989 5.04667 89.1455 3.90667 88.3322 3.28C87.5189 2.64 86.1855 2.32 84.3322 2.32H79.4922C77.9589 2.32 76.7389 2.52 75.8322 2.92C74.9255 3.30667 74.2722 3.96 73.8722 4.88C73.4855 5.78667 73.2922 7.01333 73.2922 8.56V17.66C73.2922 19.2067 73.4922 20.4333 73.8922 21.34C74.2922 22.2467 74.9455 22.9 75.8522 23.3C76.7589 23.7 77.9855 23.9 79.5322 23.9H84.3322C86.1855 23.9 87.5189 23.5867 88.3322 22.96C89.1455 22.32 89.5989 21.1733 89.6922 19.52C89.7589 18.8133 90.1255 18.46 90.7922 18.46C91.1389 18.46 91.3989 18.56 91.5722 18.76C91.7589 18.9467 91.8322 19.2133 91.7922 19.56C91.6722 21.8133 91.0122 23.4533 89.8122 24.48C88.6122 25.4933 86.7855 26 84.3322 26H79.5322ZM99.3938 26C98.6871 26 98.3338 25.6467 98.3338 24.94V1.28C98.3338 0.573332 98.6871 0.219999 99.3938 0.219999H108.754C111.034 0.219999 112.754 0.806666 113.914 1.98C115.087 3.15333 115.674 4.88 115.674 7.16V8.36C115.674 10.6267 115.087 12.3467 113.914 13.52C112.754 14.6933 111.034 15.28 108.754 15.28H100.434V24.94C100.434 25.6467 100.087 26 99.3938 26ZM100.434 13.18H108.754C110.434 13.18 111.654 12.8 112.414 12.04C113.187 11.2667 113.574 10.04 113.574 8.36V7.16C113.574 5.46667 113.187 4.24 112.414 3.48C111.654 2.70667 110.434 2.32 108.754 2.32H100.434V13.18Z" />
    </mask>
    <path
        d="M14.02 20.36C13.6733 20.9467 13.2133 21.0733 12.64 20.74L0.94 14.16C0.473334 13.9067 0.24 13.4933 0.24 12.92C0.24 12.4267 0.473334 12.0467 0.94 11.78L12.64 5.26C13.2133 4.94 13.6733 5.06667 14.02 5.64C14.34 6.21333 14.2067 6.67333 13.62 7.02L2.36 13.26V12.64L13.64 19C14.2133 19.3467 14.34 19.8 14.02 20.36ZM22.8219 20.36C22.4885 19.8 22.6152 19.3467 23.2019 19L34.4819 12.64V13.26L23.2019 7.02C22.6285 6.67333 22.5019 6.21333 22.8219 5.64C23.1552 5.06667 23.6085 4.94 24.1819 5.26L35.8819 11.78C36.3485 12.0467 36.5819 12.4267 36.5819 12.92C36.5819 13.4933 36.3485 13.9067 35.8819 14.16L24.1819 20.74C23.6085 21.0733 23.1552 20.9467 22.8219 20.36ZM45.6438 26C44.9371 26 44.5838 25.6467 44.5838 24.94V1.28C44.5838 0.573332 44.9371 0.219999 45.6438 0.219999H55.2838C58.6038 0.219999 61.0171 0.979999 62.5238 2.5C64.0438 4.02 64.8038 6.44 64.8038 9.76V16.46C64.8038 19.78 64.0438 22.2 62.5238 23.72C61.0171 25.24 58.6038 26 55.2838 26H45.6438ZM46.6838 23.9H55.2838C57.0971 23.9 58.5438 23.66 59.6238 23.18C60.7171 22.7 61.5038 21.92 61.9838 20.84C62.4638 19.7467 62.7038 18.2867 62.7038 16.46V9.76C62.7038 7.94667 62.4638 6.5 61.9838 5.42C61.5038 4.32667 60.7171 3.54 59.6238 3.06C58.5438 2.56667 57.0971 2.32 55.2838 2.32H46.6838V23.9ZM79.5322 26C76.6389 26 74.5255 25.3333 73.1922 24C71.8589 22.6667 71.1922 20.5533 71.1922 17.66V8.56C71.1922 5.64 71.8522 3.52 73.1722 2.2C74.5055 0.879999 76.6122 0.219999 79.4922 0.219999H84.3322C86.7855 0.219999 88.6122 0.733333 89.8122 1.76C91.0122 2.77333 91.6722 4.40667 91.7922 6.66C91.8322 7.02 91.7589 7.29333 91.5722 7.48C91.3989 7.66667 91.1389 7.76 90.7922 7.76C90.1255 7.76 89.7589 7.40667 89.6922 6.7C89.5989 5.04667 89.1455 3.90667 88.3322 3.28C87.5189 2.64 86.1855 2.32 84.3322 2.32H79.4922C77.9589 2.32 76.7389 2.52 75.8322 2.92C74.9255 3.30667 74.2722 3.96 73.8722 4.88C73.4855 5.78667 73.2922 7.01333 73.2922 8.56V17.66C73.2922 19.2067 73.4922 20.4333 73.8922 21.34C74.2922 22.2467 74.9455 22.9 75.8522 23.3C76.7589 23.7 77.9855 23.9 79.5322 23.9H84.3322C86.1855 23.9 87.5189 23.5867 88.3322 22.96C89.1455 22.32 89.5989 21.1733 89.6922 19.52C89.7589 18.8133 90.1255 18.46 90.7922 18.46C91.1389 18.46 91.3989 18.56 91.5722 18.76C91.7589 18.9467 91.8322 19.2133 91.7922 19.56C91.6722 21.8133 91.0122 23.4533 89.8122 24.48C88.6122 25.4933 86.7855 26 84.3322 26H79.5322ZM99.3938 26C98.6871 26 98.3338 25.6467 98.3338 24.94V1.28C98.3338 0.573332 98.6871 0.219999 99.3938 0.219999H108.754C111.034 0.219999 112.754 0.806666 113.914 1.98C115.087 3.15333 115.674 4.88 115.674 7.16V8.36C115.674 10.6267 115.087 12.3467 113.914 13.52C112.754 14.6933 111.034 15.28 108.754 15.28H100.434V24.94C100.434 25.6467 100.087 26 99.3938 26ZM100.434 13.18H108.754C110.434 13.18 111.654 12.8 112.414 12.04C113.187 11.2667 113.574 10.04 113.574 8.36V7.16C113.574 5.46667 113.187 4.24 112.414 3.48C111.654 2.70667 110.434 2.32 108.754 2.32H100.434V13.18Z"
        fill="white" />
    <path
        d="M14.02 20.36C13.6733 20.9467 13.2133 21.0733 12.64 20.74L0.94 14.16C0.473334 13.9067 0.24 13.4933 0.24 12.92C0.24 12.4267 0.473334 12.0467 0.94 11.78L12.64 5.26C13.2133 4.94 13.6733 5.06667 14.02 5.64C14.34 6.21333 14.2067 6.67333 13.62 7.02L2.36 13.26V12.64L13.64 19C14.2133 19.3467 14.34 19.8 14.02 20.36ZM22.8219 20.36C22.4885 19.8 22.6152 19.3467 23.2019 19L34.4819 12.64V13.26L23.2019 7.02C22.6285 6.67333 22.5019 6.21333 22.8219 5.64C23.1552 5.06667 23.6085 4.94 24.1819 5.26L35.8819 11.78C36.3485 12.0467 36.5819 12.4267 36.5819 12.92C36.5819 13.4933 36.3485 13.9067 35.8819 14.16L24.1819 20.74C23.6085 21.0733 23.1552 20.9467 22.8219 20.36ZM45.6438 26C44.9371 26 44.5838 25.6467 44.5838 24.94V1.28C44.5838 0.573332 44.9371 0.219999 45.6438 0.219999H55.2838C58.6038 0.219999 61.0171 0.979999 62.5238 2.5C64.0438 4.02 64.8038 6.44 64.8038 9.76V16.46C64.8038 19.78 64.0438 22.2 62.5238 23.72C61.0171 25.24 58.6038 26 55.2838 26H45.6438ZM46.6838 23.9H55.2838C57.0971 23.9 58.5438 23.66 59.6238 23.18C60.7171 22.7 61.5038 21.92 61.9838 20.84C62.4638 19.7467 62.7038 18.2867 62.7038 16.46V9.76C62.7038 7.94667 62.4638 6.5 61.9838 5.42C61.5038 4.32667 60.7171 3.54 59.6238 3.06C58.5438 2.56667 57.0971 2.32 55.2838 2.32H46.6838V23.9ZM79.5322 26C76.6389 26 74.5255 25.3333 73.1922 24C71.8589 22.6667 71.1922 20.5533 71.1922 17.66V8.56C71.1922 5.64 71.8522 3.52 73.1722 2.2C74.5055 0.879999 76.6122 0.219999 79.4922 0.219999H84.3322C86.7855 0.219999 88.6122 0.733333 89.8122 1.76C91.0122 2.77333 91.6722 4.40667 91.7922 6.66C91.8322 7.02 91.7589 7.29333 91.5722 7.48C91.3989 7.66667 91.1389 7.76 90.7922 7.76C90.1255 7.76 89.7589 7.40667 89.6922 6.7C89.5989 5.04667 89.1455 3.90667 88.3322 3.28C87.5189 2.64 86.1855 2.32 84.3322 2.32H79.4922C77.9589 2.32 76.7389 2.52 75.8322 2.92C74.9255 3.30667 74.2722 3.96 73.8722 4.88C73.4855 5.78667 73.2922 7.01333 73.2922 8.56V17.66C73.2922 19.2067 73.4922 20.4333 73.8922 21.34C74.2922 22.2467 74.9455 22.9 75.8522 23.3C76.7589 23.7 77.9855 23.9 79.5322 23.9H84.3322C86.1855 23.9 87.5189 23.5867 88.3322 22.96C89.1455 22.32 89.5989 21.1733 89.6922 19.52C89.7589 18.8133 90.1255 18.46 90.7922 18.46C91.1389 18.46 91.3989 18.56 91.5722 18.76C91.7589 18.9467 91.8322 19.2133 91.7922 19.56C91.6722 21.8133 91.0122 23.4533 89.8122 24.48C88.6122 25.4933 86.7855 26 84.3322 26H79.5322ZM99.3938 26C98.6871 26 98.3338 25.6467 98.3338 24.94V1.28C98.3338 0.573332 98.6871 0.219999 99.3938 0.219999H108.754C111.034 0.219999 112.754 0.806666 113.914 1.98C115.087 3.15333 115.674 4.88 115.674 7.16V8.36C115.674 10.6267 115.087 12.3467 113.914 13.52C112.754 14.6933 111.034 15.28 108.754 15.28H100.434V24.94C100.434 25.6467 100.087 26 99.3938 26ZM100.434 13.18H108.754C110.434 13.18 111.654 12.8 112.414 12.04C113.187 11.2667 113.574 10.04 113.574 8.36V7.16C113.574 5.46667 113.187 4.24 112.414 3.48C111.654 2.70667 110.434 2.32 108.754 2.32H100.434V13.18Z"
        fill="#FF00DD" fill-opacity="0.2" />
    <path
        d="M14.02 20.36L14.8809 20.8687L14.8846 20.8625L14.8882 20.8561L14.02 20.36ZM12.64 20.74L13.1426 19.8755L13.1364 19.8719L13.1302 19.8684L12.64 20.74ZM0.94 14.16L1.43019 13.2884L1.42367 13.2847L1.41709 13.2811L0.94 14.16ZM0.94 11.78L0.453189 10.9064L0.443862 10.9118L0.94 11.78ZM12.64 5.26L13.1268 6.13352L13.1274 6.1332L12.64 5.26ZM14.02 5.64L14.8932 5.15263L14.8847 5.13746L14.8757 5.12258L14.02 5.64ZM13.62 7.02L14.1047 7.89467L14.1168 7.88796L14.1287 7.88093L13.62 7.02ZM2.36 13.26H1.36V14.9575L2.84472 14.1347L2.36 13.26ZM2.36 12.64L2.85114 11.7689L1.36 10.9282V12.64H2.36ZM13.64 19L14.1574 18.1443L14.1444 18.1364L14.1311 18.1289L13.64 19ZM13.1591 19.8513C13.1362 19.89 13.1167 19.9175 13.1019 19.9361C13.0872 19.9547 13.0782 19.963 13.0763 19.9646C13.0747 19.9661 13.0802 19.9609 13.0937 19.9534C13.1075 19.9456 13.1264 19.9372 13.1495 19.9309C13.1727 19.9245 13.1946 19.9217 13.2133 19.9212C13.2316 19.9208 13.2427 19.9227 13.2449 19.9232C13.2467 19.9235 13.2392 19.9222 13.2216 19.9152C13.2039 19.9081 13.1776 19.8958 13.1426 19.8755L12.1374 21.6045C12.5638 21.8525 13.1039 22.0179 13.6805 21.8591C14.2504 21.7022 14.6323 21.2895 14.8809 20.8687L13.1591 19.8513ZM13.1302 19.8684L1.43019 13.2884L0.44981 15.0316L12.1498 21.6116L13.1302 19.8684ZM1.41709 13.2811C1.32858 13.2331 1.29953 13.1927 1.28582 13.1684C1.26981 13.14 1.24 13.0701 1.24 12.92H-0.76C-0.76 13.3432 -0.673146 13.7666 -0.455824 14.1516C-0.236197 14.5406 0.0847556 14.8336 0.462908 15.0389L1.41709 13.2811ZM1.24 12.92C1.24 12.8378 1.25724 12.8044 1.26717 12.7883C1.27964 12.7679 1.31877 12.7153 1.43614 12.6482L0.443862 10.9118C-0.30041 11.3371 -0.76 12.0303 -0.76 12.92H1.24ZM1.42678 12.6535L13.1268 6.13352L12.1532 4.38648L0.453217 10.9065L1.42678 12.6535ZM13.1274 6.1332C13.1622 6.11374 13.1886 6.10195 13.2068 6.09502C13.2248 6.08812 13.2332 6.08659 13.2327 6.08669C13.2318 6.08685 13.2226 6.08846 13.2065 6.08796C13.1901 6.08746 13.1704 6.08487 13.1495 6.07911C13.1287 6.07337 13.1115 6.06583 13.0988 6.05887C13.0866 6.05208 13.0816 6.04748 13.0833 6.04903C13.0853 6.05076 13.0941 6.05873 13.1085 6.07642C13.1229 6.09417 13.1419 6.12038 13.1643 6.15742L14.8757 5.12258C14.6238 4.70598 14.2418 4.30546 13.6805 4.15088C13.1145 3.99504 12.5807 4.14788 12.1526 4.3868L13.1274 6.1332ZM13.1468 6.12737C13.1659 6.16159 13.1772 6.18715 13.1837 6.20426C13.1902 6.22125 13.1913 6.22842 13.1909 6.22652C13.1905 6.22428 13.1889 6.21365 13.1896 6.19627C13.1903 6.17854 13.1933 6.15799 13.1995 6.1366C13.2057 6.11529 13.2136 6.09815 13.2205 6.08605C13.2272 6.07429 13.2314 6.0701 13.229 6.07286C13.2263 6.07582 13.2171 6.08556 13.1978 6.10086C13.1784 6.1162 13.1504 6.13597 13.1113 6.15907L14.1287 7.88093C14.5487 7.63279 14.9577 7.25482 15.1205 6.6934C15.2857 6.12332 15.1339 5.58395 14.8932 5.15263L13.1468 6.12737ZM13.1353 6.14533L1.87528 12.3853L2.84472 14.1347L14.1047 7.89467L13.1353 6.14533ZM3.36 13.26V12.64H1.36V13.26H3.36ZM1.86886 13.5111L13.1489 19.8711L14.1311 18.1289L2.85114 11.7689L1.86886 13.5111ZM13.1226 19.8557C13.1602 19.8785 13.187 19.8978 13.2053 19.9126C13.2235 19.9273 13.2318 19.9363 13.2337 19.9385C13.2354 19.9405 13.2306 19.9354 13.2235 19.9227C13.2162 19.9096 13.2081 19.8915 13.2019 19.8691C13.1956 19.8467 13.1926 19.8251 13.1921 19.8062C13.1915 19.7878 13.1933 19.776 13.194 19.7726C13.1946 19.7695 13.1937 19.7755 13.1876 19.7911C13.1814 19.807 13.1705 19.8311 13.1518 19.8639L14.8882 20.8561C15.1306 20.4321 15.2867 19.8986 15.1281 19.3309C14.972 18.772 14.5697 18.3936 14.1574 18.1443L13.1226 19.8557ZM22.8219 20.36L23.6913 19.866L23.6863 19.8572L23.6812 19.8485L22.8219 20.36ZM23.2019 19L22.7107 18.1289L22.7019 18.1339L22.6931 18.1391L23.2019 19ZM34.4819 12.64H35.4819V10.9282L33.9907 11.7689L34.4819 12.64ZM34.4819 13.26L33.9978 14.135L35.4819 14.956V13.26H34.4819ZM23.2019 7.02L22.6845 7.87573L22.7009 7.8857L22.7178 7.89503L23.2019 7.02ZM22.8219 5.64L21.9574 5.13738L21.953 5.14497L21.9487 5.15263L22.8219 5.64ZM24.1819 5.26L23.6945 6.1332L23.6951 6.13352L24.1819 5.26ZM35.8819 11.78L36.378 10.9117L36.3687 10.9065L35.8819 11.78ZM35.8819 14.16L35.4048 13.2811L35.3982 13.2847L35.3917 13.2884L35.8819 14.16ZM24.1819 20.74L23.6917 19.8684L23.6854 19.8719L23.6793 19.8755L24.1819 20.74ZM23.6812 19.8485C23.6616 19.8156 23.6502 19.7916 23.6439 19.7761C23.6376 19.7608 23.6371 19.7558 23.638 19.7602C23.6389 19.7649 23.6411 19.7786 23.6406 19.7993C23.6401 19.8204 23.6369 19.8444 23.63 19.8691C23.6231 19.8937 23.6141 19.9136 23.6061 19.9278C23.5982 19.9417 23.5929 19.9474 23.5945 19.9455C23.5963 19.9435 23.605 19.9342 23.6241 19.9191C23.6432 19.904 23.6712 19.8842 23.7106 19.8609L22.6931 18.1391C22.2767 18.3851 21.8623 18.7635 21.7038 19.3309C21.5421 19.9095 21.7112 20.4492 21.9626 20.8715L23.6812 19.8485ZM23.693 19.8711L34.973 13.5111L33.9907 11.7689L22.7107 18.1289L23.693 19.8711ZM33.4819 12.64V13.26H35.4819V12.64H33.4819ZM34.9659 12.385L23.6859 6.14496L22.7178 7.89503L33.9978 14.135L34.9659 12.385ZM23.7193 6.16427C23.6823 6.14187 23.6561 6.12291 23.6383 6.10849C23.6206 6.09412 23.6126 6.08534 23.6109 6.08334C23.6094 6.08156 23.614 6.08655 23.6207 6.09884C23.6277 6.11145 23.6352 6.12866 23.641 6.14952C23.6467 6.17042 23.6493 6.19005 23.6498 6.20648C23.6503 6.22257 23.6487 6.23182 23.6486 6.23266C23.6485 6.23318 23.65 6.22479 23.6569 6.20675C23.6638 6.18862 23.6756 6.16223 23.6951 6.12737L21.9487 5.15263C21.7098 5.5807 21.5569 6.11451 21.7128 6.68048C21.8673 7.24184 22.2679 7.62383 22.6845 7.87573L23.7193 6.16427ZM23.6864 6.14262C23.7075 6.1063 23.7252 6.08104 23.7383 6.06438C23.7514 6.04779 23.7588 6.04114 23.7591 6.04081C23.7593 6.04068 23.7525 6.04674 23.7381 6.05483C23.731 6.05883 23.7225 6.06307 23.7126 6.06716C23.7028 6.07126 23.6922 6.07498 23.681 6.07811C23.6698 6.08124 23.6586 6.0836 23.6478 6.08524C23.637 6.08687 23.6272 6.08769 23.6185 6.08795C23.601 6.0885 23.5907 6.08674 23.5893 6.08648C23.5882 6.08627 23.5964 6.08771 23.6145 6.09465C23.6327 6.10162 23.6593 6.11353 23.6945 6.1332L24.6692 4.3868C24.2445 4.14975 23.71 3.99341 23.1428 4.15189C22.578 4.3097 22.201 4.71838 21.9574 5.13738L23.6864 6.14262ZM23.6951 6.13352L35.3951 12.6535L36.3687 10.9065L24.6687 4.38648L23.6951 6.13352ZM35.3857 12.6482C35.5031 12.7153 35.5422 12.7679 35.5547 12.7883C35.5646 12.8044 35.5819 12.8378 35.5819 12.92H37.5819C37.5819 12.0303 37.1223 11.3371 36.378 10.9118L35.3857 12.6482ZM35.5819 12.92C35.5819 13.0701 35.5521 13.14 35.5361 13.1684C35.5223 13.1927 35.4933 13.2331 35.4048 13.2811L36.359 15.0389C36.7371 14.8336 37.0581 14.5406 37.2777 14.1516C37.495 13.7666 37.5819 13.3432 37.5819 12.92H35.5819ZM35.3917 13.2884L23.6917 19.8684L24.6721 21.6116L36.3721 15.0316L35.3917 13.2884ZM23.6793 19.8755C23.6439 19.8961 23.6174 19.9084 23.5996 19.9156C23.5819 19.9227 23.5747 19.9239 23.577 19.9234C23.5798 19.9229 23.5919 19.9208 23.6116 19.9212C23.6214 19.9215 23.6324 19.9223 23.6444 19.9241C23.6564 19.9259 23.6687 19.9284 23.681 19.9319C23.6933 19.9353 23.7049 19.9394 23.7156 19.9439C23.7263 19.9484 23.7356 19.9531 23.7433 19.9575C23.7588 19.9663 23.7662 19.973 23.7661 19.973C23.7658 19.9727 23.7582 19.9657 23.7447 19.9482C23.7312 19.9306 23.713 19.9041 23.6913 19.866L21.9524 20.854C22.1927 21.2769 22.5693 21.6979 23.1428 21.8581C23.7207 22.0196 24.2615 21.8504 24.6845 21.6045L23.6793 19.8755ZM62.5238 2.5L61.8135 3.20399L61.8166 3.20711L62.5238 2.5ZM62.5238 23.72L61.8166 23.0129L61.8135 23.016L62.5238 23.72ZM46.6838 23.9H45.6838V24.9H46.6838V23.9ZM59.6238 23.18L59.2218 22.2643L59.2176 22.2662L59.6238 23.18ZM61.9838 20.84L62.8976 21.2461L62.8994 21.242L61.9838 20.84ZM61.9838 5.42L61.0681 5.82199L61.0699 5.82614L61.9838 5.42ZM59.6238 3.06L59.2083 3.96959L59.215 3.97267L59.2218 3.97564L59.6238 3.06ZM46.6838 2.32V1.32H45.6838V2.32H46.6838ZM45.6438 25C45.5474 25 45.5039 24.9876 45.4962 24.9851C45.4934 24.9841 45.4999 24.986 45.5123 24.9934C45.525 25.0011 45.5405 25.0125 45.5559 25.0279C45.5713 25.0433 45.5827 25.0587 45.5903 25.0714C45.5977 25.0838 45.5996 25.0903 45.5987 25.0875C45.5961 25.0799 45.5838 25.0363 45.5838 24.94H43.5838C43.5838 25.4475 43.7113 26.0118 44.1416 26.4421C44.572 26.8725 45.1363 27 45.6438 27V25ZM45.5838 24.94V1.28H43.5838V24.94H45.5838ZM45.5838 1.28C45.5838 1.18368 45.5961 1.14011 45.5987 1.13248C45.5996 1.12966 45.5977 1.13618 45.5903 1.14856C45.5827 1.16129 45.5713 1.1767 45.5559 1.19211C45.5405 1.20751 45.525 1.21891 45.5123 1.22655C45.4999 1.23398 45.4934 1.23587 45.4962 1.23493C45.5039 1.23239 45.5474 1.22 45.6438 1.22V-0.780001C45.1363 -0.780001 44.572 -0.652454 44.1416 -0.222108C43.7113 0.208239 43.5838 0.772521 43.5838 1.28H45.5838ZM45.6438 1.22H55.2838V-0.780001H45.6438V1.22ZM55.2838 1.22C58.4805 1.22 60.576 1.95553 61.8135 3.20398L63.234 1.79601C61.4581 0.00447056 58.727 -0.780001 55.2838 -0.780001V1.22ZM61.8166 3.20711C63.0686 4.45909 63.8038 6.56419 63.8038 9.76H65.8038C65.8038 6.3158 65.0189 3.5809 63.2309 1.79289L61.8166 3.20711ZM63.8038 9.76V16.46H65.8038V9.76H63.8038ZM63.8038 16.46C63.8038 19.6558 63.0686 21.7609 61.8166 23.0129L63.2309 24.4271C65.0189 22.6391 65.8038 19.9042 65.8038 16.46H63.8038ZM61.8135 23.016C60.576 24.2645 58.4805 25 55.2838 25V27C58.727 27 61.4581 26.2155 63.234 24.424L61.8135 23.016ZM55.2838 25H45.6438V27H55.2838V25ZM46.6838 24.9H55.2838V22.9H46.6838V24.9ZM55.2838 24.9C57.1697 24.9 58.7722 24.6528 60.0299 24.0938L59.2176 22.2662C58.3153 22.6672 57.0245 22.9 55.2838 22.9V24.9ZM60.0257 24.0956C61.3446 23.5166 62.3152 22.5564 62.8976 21.2461L61.0699 20.4339C60.6923 21.2836 60.0896 21.8834 59.2218 22.2644L60.0257 24.0956ZM62.8994 21.242C63.4566 19.9729 63.7038 18.359 63.7038 16.46H61.7038C61.7038 18.2144 61.4709 19.5204 61.0681 20.438L62.8994 21.242ZM63.7038 16.46V9.76H61.7038V16.46H63.7038ZM63.7038 9.76C63.7038 7.87409 63.4565 6.27152 62.8976 5.01386L61.0699 5.82614C61.471 6.72847 61.7038 8.01924 61.7038 9.76H63.7038ZM62.8994 5.01801C62.3186 3.69512 61.3486 2.72513 60.0257 2.14435L59.2218 3.97564C60.0855 4.35486 60.6889 4.95821 61.0681 5.82199L62.8994 5.01801ZM60.0392 2.1504C58.7784 1.57447 57.1721 1.32 55.2838 1.32V3.32C57.022 3.32 58.3091 3.55886 59.2083 3.96959L60.0392 2.1504ZM55.2838 1.32H46.6838V3.32H55.2838V1.32ZM45.6838 2.32V23.9H47.6838V2.32H45.6838ZM73.1922 24L73.8993 23.2929L73.8993 23.2929L73.1922 24ZM73.1722 2.2L72.4686 1.48934L72.4651 1.49289L73.1722 2.2ZM89.8122 1.76L89.1621 2.51987L89.167 2.52403L89.8122 1.76ZM91.7922 6.66L90.7936 6.71318L90.7951 6.74187L90.7983 6.77043L91.7922 6.66ZM91.5722 7.48L90.8651 6.77289L90.852 6.78598L90.8394 6.79955L91.5722 7.48ZM89.6922 6.7L88.6938 6.75636L88.6948 6.77517L88.6966 6.79392L89.6922 6.7ZM88.3322 3.28L87.7138 4.06591L87.7219 4.07214L88.3322 3.28ZM75.8322 2.92L76.2245 3.83991L76.2358 3.83492L75.8322 2.92ZM73.8722 4.88L72.9551 4.48126L72.9523 4.48771L73.8722 4.88ZM73.8922 21.34L72.9773 21.7436L72.9773 21.7436L73.8922 21.34ZM75.8522 23.3L75.4485 24.2149L75.4485 24.2149L75.8522 23.3ZM88.3322 22.96L88.9426 23.7522L88.9506 23.7459L88.3322 22.96ZM89.6922 19.52L88.6966 19.4261L88.6948 19.4448L88.6938 19.4636L89.6922 19.52ZM91.5722 18.76L90.8165 19.4149L90.8399 19.4419L90.8651 19.4671L91.5722 18.76ZM91.7922 19.56L90.7988 19.4454L90.7952 19.476L90.7936 19.5068L91.7922 19.56ZM89.8122 24.48L90.4574 25.244L90.4623 25.2399L89.8122 24.48ZM79.5322 25C76.7653 25 74.9656 24.3592 73.8993 23.2929L72.4851 24.7071C74.0854 26.3074 76.5124 27 79.5322 27V25ZM73.8993 23.2929C72.8329 22.2265 72.1922 20.4269 72.1922 17.66H70.1922C70.1922 20.6798 70.8848 23.1068 72.4851 24.7071L73.8993 23.2929ZM72.1922 17.66V8.56H70.1922V17.66H72.1922ZM72.1922 8.56C72.1922 5.75984 72.8293 3.95711 73.8793 2.90711L72.4651 1.49289C70.8751 3.08288 70.1922 5.52015 70.1922 8.56H72.1922ZM73.8757 2.91065C74.9426 1.85449 76.7379 1.22 79.4922 1.22V-0.780001C76.4865 -0.780001 74.0685 -0.09449 72.4686 1.48935L73.8757 2.91065ZM79.4922 1.22H84.3322V-0.780001H79.4922V1.22ZM84.3322 1.22C86.6728 1.22 88.2201 1.71394 89.1621 2.51985L90.4623 1.00015C89.0043 -0.247272 86.8982 -0.780001 84.3322 -0.780001V1.22ZM89.167 2.52403C90.0781 3.29338 90.6818 4.61328 90.7936 6.71318L92.7908 6.60682C92.6626 4.20005 91.9463 2.25328 90.4574 0.99597L89.167 2.52403ZM90.7983 6.77043C90.8082 6.8597 90.7981 6.88804 90.8013 6.87587C90.8033 6.86861 90.8086 6.85252 90.8204 6.83169C90.8323 6.81051 90.8477 6.79024 90.8651 6.77289L92.2793 8.18711C92.7533 7.71315 92.8464 7.0923 92.7861 6.54957L90.7983 6.77043ZM90.8394 6.79955C90.8533 6.7846 90.8685 6.77206 90.8832 6.76258C90.8976 6.75329 90.9075 6.74948 90.9093 6.7488C90.9114 6.74807 90.8785 6.76 90.7922 6.76V8.76C91.3128 8.76 91.8816 8.61637 92.305 8.16045L90.8394 6.79955ZM90.7922 6.76C90.7121 6.76 90.6769 6.74922 90.672 6.74754C90.6711 6.74724 90.6898 6.75445 90.7111 6.77492C90.7572 6.81932 90.7074 6.8146 90.6878 6.60608L88.6966 6.79392C88.7436 7.29207 88.9106 7.81735 89.3233 8.21508C89.7451 8.62154 90.2828 8.76 90.7922 8.76V6.76ZM90.6906 6.64364C90.5907 4.87471 90.0953 3.37607 88.9425 2.48786L87.7219 4.07214C88.1957 4.43726 88.607 5.21862 88.6938 6.75636L90.6906 6.64364ZM88.9506 2.49413C87.868 1.64226 86.2526 1.32 84.3322 1.32V3.32C86.1185 3.32 87.1697 3.63774 87.7138 4.06587L88.9506 2.49413ZM84.3322 1.32H79.4922V3.32H84.3322V1.32ZM79.4922 1.32C77.8881 1.32 76.5127 1.52676 75.4285 2.00508L76.2358 3.83492C76.965 3.51323 78.0296 3.32 79.4922 3.32V1.32ZM75.4399 2.00016C74.2935 2.48905 73.455 3.33152 72.9551 4.48127L74.7893 5.27873C75.0894 4.58848 75.5575 4.12428 76.2245 3.83984L75.4399 2.00016ZM72.9523 4.48771C72.4913 5.56874 72.2922 6.94686 72.2922 8.56H74.2922C74.2922 7.07981 74.4797 6.00459 74.792 5.27229L72.9523 4.48771ZM72.2922 8.56V17.66H74.2922V8.56H72.2922ZM72.2922 17.66C72.2922 19.276 72.4986 20.6586 72.9773 21.7436L74.8071 20.9364C74.4858 20.2081 74.2922 19.1374 74.2922 17.66H72.2922ZM72.9773 21.7436C73.478 22.8785 74.3137 23.7142 75.4485 24.2149L76.2558 22.3851C75.5774 22.0858 75.1064 21.6148 74.8071 20.9364L72.9773 21.7436ZM75.4485 24.2149C76.5336 24.6936 77.9162 24.9 79.5322 24.9V22.9C78.0548 22.9 76.9841 22.7064 76.2558 22.3851L75.4485 24.2149ZM79.5322 24.9H84.3322V22.9H79.5322V24.9ZM84.3322 24.9C86.2497 24.9 87.8613 24.5852 88.9425 23.7521L87.7219 22.1679C87.1764 22.5881 86.1213 22.9 84.3322 22.9V24.9ZM88.9506 23.7459C90.0947 22.8456 90.5906 21.3474 90.6906 19.5764L88.6938 19.4636C88.6071 20.9992 88.1963 21.7944 87.7138 22.1741L88.9506 23.7459ZM90.6878 19.6139C90.7074 19.4054 90.7572 19.4007 90.7111 19.4451C90.6898 19.4655 90.6711 19.4728 90.672 19.4725C90.6769 19.4708 90.7121 19.46 90.7922 19.46V17.46C90.2828 17.46 89.7451 17.5985 89.3233 18.0049C88.9106 18.4026 88.7436 18.9279 88.6966 19.4261L90.6878 19.6139ZM90.7922 19.46C90.8717 19.46 90.897 19.4717 90.8882 19.4683C90.8832 19.4664 90.8716 19.4612 90.8567 19.4509C90.8417 19.4405 90.8278 19.428 90.8165 19.4149L92.3279 18.1051C91.9098 17.6227 91.3332 17.46 90.7922 17.46V19.46ZM90.8651 19.4671C90.8499 19.4519 90.8354 19.4333 90.8235 19.4125C90.8117 19.392 90.8057 19.375 90.803 19.3652C90.7981 19.3472 90.8078 19.3673 90.7988 19.4454L92.7856 19.6746C92.8485 19.1298 92.747 18.5206 92.2793 18.0529L90.8651 19.4671ZM90.7936 19.5068C90.6818 21.6058 90.0783 22.9363 89.1621 23.7201L90.4623 25.2399C91.9461 23.9704 92.6626 22.0209 92.7908 19.6132L90.7936 19.5068ZM89.167 23.716C88.2247 24.5117 86.6753 25 84.3322 25V27C86.8957 27 88.9997 26.475 90.4574 25.244L89.167 23.716ZM84.3322 25H79.5322V27H84.3322V25ZM113.914 1.98L113.203 2.68306L113.207 2.6871L113.914 1.98ZM113.914 13.52L113.207 12.8129L113.203 12.8169L113.914 13.52ZM100.434 15.28V14.28H99.4338V15.28H100.434ZM100.434 13.18H99.4338V14.18H100.434V13.18ZM112.414 3.48L111.701 4.18093L111.707 4.18713L111.713 4.19323L112.414 3.48ZM100.434 2.32V1.32H99.4338V2.32H100.434ZM99.3938 25C99.2974 25 99.2539 24.9876 99.2462 24.9851C99.2434 24.9841 99.2499 24.986 99.2623 24.9934C99.275 25.0011 99.2905 25.0125 99.3059 25.0279C99.3213 25.0433 99.3327 25.0587 99.3403 25.0714C99.3477 25.0838 99.3496 25.0903 99.3487 25.0875C99.3461 25.0799 99.3338 25.0363 99.3338 24.94H97.3338C97.3338 25.4475 97.4613 26.0118 97.8916 26.4421C98.322 26.8725 98.8863 27 99.3938 27V25ZM99.3338 24.94V1.28H97.3338V24.94H99.3338ZM99.3338 1.28C99.3338 1.18368 99.3461 1.14011 99.3487 1.13248C99.3496 1.12966 99.3477 1.13618 99.3403 1.14856C99.3327 1.16129 99.3213 1.1767 99.3059 1.19211C99.2905 1.20751 99.275 1.21891 99.2623 1.22655C99.2499 1.23398 99.2434 1.23587 99.2462 1.23493C99.2539 1.23239 99.2974 1.22 99.3938 1.22V-0.780001C98.8863 -0.780001 98.322 -0.652454 97.8916 -0.222108C97.4613 0.208239 97.3338 0.772521 97.3338 1.28H99.3338ZM99.3938 1.22H108.754V-0.780001H99.3938V1.22ZM108.754 1.22C110.871 1.22 112.293 1.76287 113.203 2.68305L114.625 1.27694C113.215 -0.149541 111.197 -0.780001 108.754 -0.780001V1.22ZM113.207 2.6871C114.131 3.61168 114.674 5.04384 114.674 7.16H116.674C116.674 4.71616 116.043 2.69499 114.621 1.27289L113.207 2.6871ZM114.674 7.16V8.36H116.674V7.16H114.674ZM114.674 8.36C114.674 10.4609 114.132 11.8873 113.207 12.8129L114.621 14.2271C116.042 12.806 116.674 10.7925 116.674 8.36H114.674ZM113.203 12.8169C112.293 13.7371 110.871 14.28 108.754 14.28V16.28C111.197 16.28 113.215 15.6495 114.625 14.2231L113.203 12.8169ZM108.754 14.28H100.434V16.28H108.754V14.28ZM99.4338 15.28V24.94H101.434V15.28H99.4338ZM99.4338 24.94C99.4338 25.0379 99.4214 25.0834 99.4183 25.0929C99.4171 25.0966 99.4186 25.0907 99.4257 25.0786C99.4331 25.0662 99.4443 25.0506 99.4599 25.0347C99.4756 25.0187 99.4917 25.0064 99.5058 24.9978C99.5195 24.9894 99.5277 24.9867 99.5271 24.9869C99.5238 24.988 99.4851 25 99.3938 25V27C99.8994 27 100.461 26.8698 100.888 26.4353C101.31 26.0044 101.434 25.4427 101.434 24.94H99.4338ZM100.434 14.18H108.754V12.18H100.434V14.18ZM108.754 14.18C110.554 14.18 112.091 13.777 113.121 12.7471L111.707 11.3329C111.217 11.823 110.314 12.18 108.754 12.18V14.18ZM113.121 12.7471C114.161 11.7066 114.574 10.166 114.574 8.36H112.574C112.574 9.91395 112.213 10.8267 111.707 11.3329L113.121 12.7471ZM114.574 8.36V7.16H112.574V8.36H114.574ZM114.574 7.16C114.574 5.3453 114.163 3.79742 113.115 2.76677L111.713 4.19323C112.211 4.68258 112.574 5.58804 112.574 7.16H114.574ZM113.127 2.77907C112.098 1.7316 110.558 1.32 108.754 1.32V3.32C110.31 3.32 111.21 3.68174 111.701 4.18093L113.127 2.77907ZM108.754 1.32H100.434V3.32H108.754V1.32ZM99.4338 2.32V13.18H101.434V2.32H99.4338Z"
        fill="black" mask="url(#path-1-outside-1_1_4)" />
</svg>
    